<svg xmlns="http://www.w3.org/2000/svg" viewBox="0 0 800 420">
  <defs>
    <linearGradient id="bg" x1="0" y1="0" x2="1" y2="1"><stop offset="0" stop-color="#1a0e04"/><stop offset="1" stop-color="#3a1c08"/></linearGradient>
    <radialGradient id="glow" cx="50%" cy="50%" r="50%"><stop offset="0" stop-color="#d97706" stop-opacity="0.2"/><stop offset="1" stop-color="transparent"/></radialGradient>
  </defs>
  <rect width="800" height="420" fill="url(#bg)"/>
  <rect width="800" height="420" fill="url(#glow)"/>
  <!-- Scroll shape -->
  <rect x="240" y="90" width="320" height="240" rx="8" fill="none" stroke="#d97706" stroke-width="2" opacity="0.35"/>
  <ellipse cx="240" cy="90" rx="28" ry="28" fill="none" stroke="#b45309" stroke-width="2" opacity="0.3"/>
  <ellipse cx="560" cy="90" rx="28" ry="28" fill="none" stroke="#b45309" stroke-width="2" opacity="0.3"/>
  <ellipse cx="240" cy="330" rx="28" ry="28" fill="none" stroke="#b45309" stroke-width="2" opacity="0.3"/>
  <ellipse cx="560" cy="330" rx="28" ry="28" fill="none" stroke="#b45309" stroke-width="2" opacity="0.3"/>
  <!-- Text lines on scroll -->
  <line x1="290" y1="145" x2="510" y2="145" stroke="#f59e0b" stroke-width="2" opacity="0.3"/>
  <line x1="290" y1="175" x2="510" y2="175" stroke="#f59e0b" stroke-width="2" opacity="0.25"/>
  <line x1="290" y1="205" x2="510" y2="205" stroke="#f59e0b" stroke-width="2" opacity="0.25"/>
  <line x1="290" y1="235" x2="440" y2="235" stroke="#f59e0b" stroke-width="2" opacity="0.25"/>
  <line x1="290" y1="265" x2="510" y2="265" stroke="#f59e0b" stroke-width="2" opacity="0.2"/>
  <line x1="290" y1="295" x2="480" y2="295" stroke="#f59e0b" stroke-width="2" opacity="0.2"/>
  <!-- Quill feather -->
  <path d="M 500 120 Q 560 80 580 60 Q 560 100 540 140 Q 520 160 500 170 Z" fill="#f59e0b" opacity="0.4"/>
  <line x1="500" y1="120" x2="520" y2="170" stroke="#d97706" stroke-width="1.5" opacity="0.5"/>
  <!-- Wax seal -->
  <circle cx="400" cy="360" r="20" fill="#dc2626" opacity="0.4"/>
  <circle cx="400" cy="360" r="14" fill="none" stroke="#f87171" stroke-width="1" opacity="0.5"/>
  <!-- Ambient dots -->
  <circle cx="150" cy="120" r="2" fill="#f59e0b" opacity="0.25"/>
  <circle cx="660" cy="150" r="2" fill="#d97706" opacity="0.25"/>
  <circle cx="130" cy="300" r="2" fill="#f59e0b" opacity="0.2"/>
  <circle cx="670" cy="280" r="2" fill="#d97706" opacity="0.2"/>
</svg>